# xmcd CD database file
#
# Track frame offsets:
#	150
#	14985
#	28586
#	42000
#	57901
#	69485
#	83589
#	95471
#	106615
#	118227
#	127009
#	140744
#	151267
#	166358
#	179924
#	190082
#	199293
#	211429
#	220107
#	231460
#	246288
#	264988
#
# Disc length: 3686 seconds
#
# Revision: 0
# Processed by: cddbd v1.4PL0 Copyright (c) Steve Scherf et al.
# Submitted via: CDex 1.50
#
DISCID=480e6416
DTITLE=Jag - Cypress Grove Blues
DYEAR=2003
DGENRE=Blues
TTITLE0=Train Train
TTITLE1=Homebound
TTITLE2=Walkin By Myself
TTITLE3=Guitar Rag
TTITLE4=Levy Camp Moan
TTITLE5=South Austin Blues
TTITLE6=Reckless Woman Blues
TTITLE7=Long Road To Travel
TTITLE8=1 Carona, No Lime
TTITLE9=Scrapper's Blues
TTITLE10=Barroom Boogie
TTITLE11=Ballin' the Jack (trad)
TTITLE12=Runnin the Line
TTITLE13=Goin' Down
TTITLE14=Cypress Boogie
TTITLE15=Baby Don't Say That
TTITLE16=Texas Summer Blues
TTITLE17=Slide Boogie
TTITLE18=Cause You Been Messin 'Round
TTITLE19=Greyhound Blues
TTITLE20=Cypress Grove Blues
TTITLE21=Unknown Track
EXTD=YEAR: 2003
EXTT0=
EXTT1=
EXTT2=
EXTT3=
EXTT4=
EXTT5=
EXTT6=
EXTT7=
EXTT8=
EXTT9=
EXTT10=
EXTT11=
EXTT12=
EXTT13=
EXTT14=
EXTT15=
EXTT16=
EXTT17=
EXTT18=
EXTT19=
EXTT20=
EXTT21=
PLAYORDER=
